<svg width="23" height="27" viewBox="0 0 23 27" fill="none" xmlns="http://www.w3.org/2000/svg">
<path d="M22.2628 21.042C21.856 21.9892 21.3676 22.8548 20.8127 23.6539C20.0505 24.7413 19.4219 25.4963 18.9407 25.9175C18.1936 26.6054 17.3945 26.9536 16.5362 26.9753C15.922 26.9753 15.1822 26.7976 14.3166 26.4428C13.451 26.0873 12.6519 25.9175 11.9265 25.9175C11.1643 25.9175 10.3435 26.0953 9.46999 26.4428C8.58924 26.7983 7.88696 26.9832 7.34652 26.9977C6.52502 27.0345 5.70425 26.6718 4.88997 25.9103C4.36471 25.4515 3.71372 24.6748 2.93702 23.5723C2.10107 22.3888 1.40529 21.0268 0.865572 19.4662C0.288283 17.7791 0 16.1513 0 14.5683C0 12.7555 0.392325 11.1949 1.17625 9.89218C1.79039 8.84165 2.61189 8.01292 3.6328 7.40601C4.66094 6.7991 5.76349 6.48842 6.95492 6.46674C7.6059 6.46674 8.46425 6.66616 9.52996 7.06571C10.5877 7.46526 11.2683 7.66467 11.5718 7.66467C11.7936 7.66467 12.5486 7.42769 13.8354 6.95444C15.0485 6.51804 16.0694 6.3403 16.9133 6.40677C19.1849 6.59174 20.8937 7.48693 22.0258 9.09958C19.9912 10.3279 18.9927 12.0518 19.0072 14.2641C19.0216 15.988 19.6509 17.4229 20.8792 18.5623C21.4341 19.0876 22.0555 19.5016 22.7512 19.7906C22.5879 20.2277 22.4326 20.6425 22.2628 21.042ZM17.0542 0.540684C17.0542 1.89468 16.5586 3.15257 15.5745 4.3216C14.391 5.71244 12.9554 6.51154 11.394 6.38582C11.3716 6.22326 11.3644 6.05274 11.3644 5.875C11.3644 4.58026 11.9265 3.18942 12.933 2.05724C13.4359 1.47995 14.0724 1.00671 14.8419 0.621606C15.6114 0.244454 16.344 0.0370923 17.0246 0.000244141C17.039 0.177983 17.0542 0.362946 17.0542 0.540684Z" fill="#1E1E1E"/>
</svg>
