<svg width="30" height="29" viewBox="0 0 30 29" fill="none" xmlns="http://www.w3.org/2000/svg">
<path d="M15 0.000244141C13.0302 0.000244141 11.0796 0.384609 9.25975 1.13139C7.43986 1.87818 5.78628 2.97276 4.3934 4.35263C1.58035 7.13942 0 10.9191 0 14.8602C0 21.4284 4.305 27.0008 10.26 28.9772C11.01 29.0961 11.25 28.6354 11.25 28.2342V25.7229C7.095 26.6145 6.21 23.7316 6.21 23.7316C5.52 22.0079 4.545 21.5472 4.545 21.5472C3.18 20.6259 4.65 20.6556 4.65 20.6556C6.15 20.7597 6.945 22.1862 6.945 22.1862C8.25 24.4449 10.455 23.7762 11.31 23.4196C11.445 22.4537 11.835 21.7999 12.255 21.4284C8.925 21.0569 5.43 19.7789 5.43 14.1172C5.43 12.4678 6 11.1452 6.975 10.0902C6.825 9.71868 6.3 8.17324 7.125 6.16714C7.125 6.16714 8.385 5.76592 11.25 7.68286C12.435 7.35594 13.725 7.19248 15 7.19248C16.275 7.19248 17.565 7.35594 18.75 7.68286C21.615 5.76592 22.875 6.16714 22.875 6.16714C23.7 8.17324 23.175 9.71868 23.025 10.0902C24 11.1452 24.57 12.4678 24.57 14.1172C24.57 19.7938 21.06 21.042 17.715 21.4135C18.255 21.8742 18.75 22.7806 18.75 24.1626V28.2342C18.75 28.6354 18.99 29.111 19.755 28.9772C25.71 26.986 30 21.4284 30 14.8602C30 12.9088 29.612 10.9765 28.8582 9.17356C28.1044 7.37067 26.9995 5.73251 25.6066 4.35263C24.2137 2.97276 22.5601 1.87818 20.7403 1.13139C18.9204 0.384609 16.9698 0.000244141 15 0.000244141Z" fill="#F8F8F8"/>
</svg>
