<svg width="25" height="25" viewBox="0 0 25 25" fill="none" xmlns="http://www.w3.org/2000/svg">
<path fill-rule="evenodd" clip-rule="evenodd" d="M1.90448 5.80677C0.588326 7.87324 -0.0722101 10.2747 0.006262 12.708C0.0320753 15.2163 0.834175 17.6582 2.30693 19.7121C3.77969 21.766 5.85404 23.3355 8.25681 24.2139C10.6596 25.0924 13.2781 25.2386 15.7675 24.6334C18.2569 24.0281 20.5005 22.6997 22.2028 20.8232C24.6024 18.0855 25.0023 14.3701 24.9024 10.8503H12.7043V15.1523L19.9032 15.2501C19.3032 17.2056 17.9035 19.161 15.8038 19.9432C14.8125 20.2899 13.761 20.4422 12.7095 20.3915C11.658 20.3409 10.6269 20.0881 9.67528 19.6478C8.72363 19.2075 7.86999 18.5881 7.1631 17.8252C6.4562 17.0622 5.90991 16.1706 5.55539 15.2012C5.20088 14.2318 5.04509 13.2036 5.09693 12.1753C5.14877 11.1471 5.40721 10.1388 5.8575 9.20823C6.3078 8.27763 6.94112 7.44286 7.72132 6.75161C8.50152 6.06035 9.41331 5.52613 10.4046 5.17946C13.0042 4.20172 15.8038 5.27723 17.9035 6.54828L21.2029 3.32177C19.3846 1.65892 17.1032 0.560172 14.6468 0.164255C12.1904 -0.231662 9.66912 0.0929986 7.40125 1.09725C5.13338 2.10149 3.22063 3.7403 1.90448 5.80677Z" fill="#F8F8F8"/>
</svg>
